<svg width="110" height="110" viewBox="0 0 110 110" fill="none" xmlns="http://www.w3.org/2000/svg">
<g clip-path="url(#clip0_591_1212)">
<path d="M70.5126 107.727C65.6073 109.116 60.416 109.81 54.9385 109.81C39.7323 109.81 26.7743 104.458 16.0646 93.7552C5.35487 83.052 0 70.1019 0 54.905C0 39.7081 5.35487 26.758 16.0646 16.0548C26.7743 5.35161 39.7323 0 54.9385 0C70.1447 0 83.1026 5.35161 93.8123 16.0548C104.522 26.758 109.877 39.7081 109.877 54.905V109.81H104.332C94.3908 109.81 86.3319 101.751 86.3319 91.81V54.0471C86.1684 45.795 83.1026 38.6868 77.1346 32.7224C71.0031 26.5946 63.6044 23.5307 54.9385 23.5307C46.2726 23.5307 38.8739 26.5946 32.7424 32.7224C26.6108 38.8502 23.5451 46.2444 23.5451 54.905C23.5451 63.5656 26.6108 70.9598 32.7424 77.0876C38.8739 83.2154 46.2726 86.2793 54.9385 86.2793C60.6612 86.2793 65.8526 84.9312 70.5126 82.235V107.727Z" fill="white"/>
</g>
<defs>
<clipPath id="clip0_591_1212">
<rect width="110" height="110" fill="white"/>
</clipPath>
</defs>
</svg>
