<svg width="95" height="26" viewBox="0 0 95 26" fill="none" xmlns="http://www.w3.org/2000/svg">
<path d="M12.1007 25.2915C11.2817 25.5235 10.415 25.6395 9.50049 25.6395C6.96171 25.6395 4.79829 24.7455 3.01022 22.9574C1.22216 21.1694 0.328125 19.0059 0.328125 16.4672C0.328125 13.9284 1.22216 11.765 3.01022 9.97689C4.79829 8.18883 6.96171 7.29479 9.50049 7.29479C12.0393 7.29479 14.2027 8.18883 15.9908 9.97689C17.7788 11.765 18.6729 13.9284 18.6729 16.4672V25.6395V25.6395C16.5018 25.6395 14.7418 23.8796 14.7418 21.7085V16.3238C14.7145 14.9453 14.2027 13.7578 13.2063 12.7614C12.1826 11.7377 10.9473 11.2258 9.50049 11.2258C8.05366 11.2258 6.81839 11.7377 5.79469 12.7614C4.77099 13.7851 4.25914 15.0203 4.25914 16.4672C4.25914 17.914 4.77099 19.1493 5.79469 20.173C6.81839 21.1967 8.05366 21.7085 9.50049 21.7085C10.4559 21.7085 11.3227 21.4833 12.1007 21.0329V25.2915Z" fill="#0E0F11"/>
<path d="M30.4659 11.2258C29.0191 11.2258 27.7838 11.7377 26.7601 12.7614C25.7364 13.7851 25.2245 15.0203 25.2245 16.4672V25.6395H21.2935V16.4672C21.2935 13.9284 22.1876 11.765 23.9756 9.97689C25.7637 8.18883 27.9271 7.29479 30.4659 7.29479V11.2258Z" fill="#0E0F11"/>
<path d="M37.0176 11.2258V16.4672C37.0176 17.914 37.5294 19.1493 38.5531 20.173C39.5768 21.1967 40.8121 21.7085 42.2589 21.7085V25.6395C39.7202 25.6395 37.5567 24.7455 35.7687 22.9574C33.9806 21.1694 33.0866 19.0059 33.0866 16.4672V2.05344H37.0176V7.29479H42.2589V7.29479C42.2589 9.46583 40.499 11.2258 38.3279 11.2258H37.0176Z" fill="#0E0F11"/>
<path d="M48.8106 7.29479V21.7085C48.8106 23.8796 47.0507 25.6395 44.8796 25.6395V25.6395V7.29479H48.8106ZM49.3634 3.36378C49.3634 4.0872 49.1041 4.70824 48.5854 5.22692C48.0804 5.73194 47.4662 5.98446 46.7428 5.98446C46.0193 5.98446 45.3983 5.73194 44.8796 5.22692C44.3746 4.70824 44.1221 4.0872 44.1221 3.36378C44.1221 2.64036 44.3746 2.02614 44.8796 1.52112C45.3983 1.00244 46.0193 0.743103 46.7428 0.743103C47.4662 0.743103 48.0804 1.00244 48.5854 1.52112C49.1041 2.02614 49.3634 2.64036 49.3634 3.36378Z" fill="#0E0F11"/>
<path d="M51.4313 7.29479H56.1199L60.6037 16.4672L63.0944 11.4408C64.3528 8.90137 66.9419 7.29479 69.776 7.29479V7.29479L60.6037 25.6395L51.4313 7.29479Z" fill="#0E0F11"/>
<path d="M78.2932 25.6395C75.7545 25.6395 73.591 24.7455 71.803 22.9574C70.0149 21.1694 69.1209 19.0059 69.1209 16.4672C69.1209 13.9284 70.0149 11.765 71.803 9.97689C73.591 8.18883 75.7545 7.29479 78.2932 7.29479C80.832 7.29479 82.9954 8.18883 84.7835 9.97689C86.5716 11.765 87.4656 13.9284 87.4656 16.4672C87.4656 19.0059 86.5716 21.1694 84.7835 22.9574C82.9954 24.7455 80.832 25.6395 78.2932 25.6395ZM78.2932 21.7085C79.7401 21.7085 80.9753 21.1967 81.999 20.173C83.0228 19.1493 83.5346 17.914 83.5346 16.4672C83.5346 15.0203 83.0228 13.7851 81.999 12.7614C80.9753 11.7377 79.7401 11.2258 78.2932 11.2258C76.8464 11.2258 75.6111 11.7377 74.5874 12.7614C73.5637 13.7851 73.0519 15.0203 73.0519 16.4672C73.0519 17.914 73.5637 19.1493 74.5874 20.173C75.6111 21.1967 76.8464 21.7085 78.2932 21.7085Z" fill="#0E0F11"/>
<path d="M90.2478 8.64776C89.9631 8.72867 89.6619 8.76912 89.3441 8.76912C88.4617 8.76912 87.7098 8.45739 87.0884 7.83392C86.467 7.21045 86.1562 6.4561 86.1562 5.57087C86.1562 4.68563 86.467 3.93128 87.0884 3.30781C87.7098 2.68434 88.4617 2.37261 89.3441 2.37261C90.2264 2.37261 90.9783 2.68434 91.5997 3.30781C92.2212 3.93128 92.5319 4.68563 92.5319 5.57087V8.76912V8.76912C91.7774 8.76912 91.1657 8.15745 91.1657 7.40292V5.52089C91.1562 5.0402 90.9783 4.62614 90.632 4.27871C90.2762 3.92176 89.8469 3.74329 89.3441 3.74329C88.8412 3.74329 88.4119 3.92176 88.0561 4.27871C87.7004 4.63566 87.5225 5.06638 87.5225 5.57087C87.5225 6.07535 87.7004 6.50607 88.0561 6.86302C88.4119 7.21997 88.8412 7.39844 89.3441 7.39844C89.6761 7.39844 89.9774 7.31991 90.2478 7.16286V8.64776Z" fill="#0E0F11"/>
<path d="M94.8089 2.37261V7.40291C94.8089 8.15745 94.1972 8.76912 93.4427 8.76912V8.76912V2.37261H94.8089ZM95.001 1.00192C95.001 1.25417 94.9109 1.47072 94.7306 1.65157C94.5551 1.82766 94.3416 1.91571 94.0902 1.91571C93.8388 1.91571 93.623 1.82766 93.4427 1.65157C93.2672 1.47072 93.1794 1.25417 93.1794 1.00192C93.1794 0.74968 93.2672 0.53551 93.4427 0.359416C93.623 0.178562 93.8388 0.0881348 94.0902 0.0881348C94.3416 0.0881348 94.5551 0.178562 94.7306 0.359416C94.9109 0.53551 95.001 0.74968 95.001 1.00192Z" fill="#0E0F11"/>
</svg>
