<svg width="206" height="54" viewBox="0 0 206 54" fill="none" xmlns="http://www.w3.org/2000/svg">
<g clip-path="url(#clip0_568_1411)">
<path d="M25.6696 53.2451C23.8839 53.7484 21.994 54 20 54C14.4643 54 9.74702 52.0609 5.84821 48.1826C1.9494 44.3043 0 39.6118 0 34.1053C0 28.5987 1.9494 23.9062 5.84821 20.028C9.74702 16.1497 14.4643 14.2105 20 14.2105C25.5357 14.2105 30.253 16.1497 34.1518 20.028C38.0506 23.9062 40 28.5987 40 34.1053V54V54C35.2661 54 31.4286 50.1624 31.4286 45.4286V33.7944C31.369 30.8043 30.253 28.2286 28.0804 26.0674C25.8482 23.847 23.1548 22.7368 20 22.7368C16.8452 22.7368 14.1518 23.847 11.9196 26.0674C9.6875 28.2878 8.57143 30.9671 8.57143 34.1053C8.57143 37.2434 9.6875 39.9227 11.9196 42.1431C14.1518 44.3635 16.8452 45.4737 20 45.4737C22.0833 45.4737 23.9732 44.9852 25.6696 44.0082V53.2451Z" fill="#1D283D"/>
<path d="M65.7143 22.7368C62.5595 22.7368 59.8661 23.847 57.6339 26.0674C55.4018 28.2878 54.2857 30.9671 54.2857 34.1053V54H45.7143V34.1053C45.7143 28.5987 47.6637 23.9062 51.5625 20.028C55.4613 16.1497 60.1786 14.2105 65.7143 14.2105V22.7368Z" fill="#1D283D"/>
<path d="M80 22.7368V34.1053C80 37.2434 81.1161 39.9227 83.3482 42.1431C85.5804 44.3635 88.2738 45.4737 91.4286 45.4737V54C85.8929 54 81.1756 52.0609 77.2768 48.1826C73.378 44.3043 71.4286 39.6118 71.4286 34.1053V2.84211H80V14.2105H91.4286V14.2105C91.4286 18.9195 87.6112 22.7368 82.9023 22.7368H80Z" fill="#1D283D"/>
<path d="M105.714 14.2105V45.4286C105.714 50.1624 101.877 54 97.1429 54V54V14.2105H105.714ZM106.92 5.68421C106.92 7.25329 106.354 8.60033 105.223 9.72533C104.122 10.8207 102.783 11.3684 101.205 11.3684C99.628 11.3684 98.2738 10.8207 97.1429 9.72533C96.0417 8.60033 95.4911 7.25329 95.4911 5.68421C95.4911 4.11513 96.0417 2.78289 97.1429 1.6875C98.2738 0.5625 99.628 0 101.205 0C102.783 0 104.122 0.5625 105.223 1.6875C106.354 2.78289 106.92 4.11513 106.92 5.68421Z" fill="#1D283D"/>
<path d="M111.429 14.2105H121.652L131.429 34.1053L136.841 23.2413C139.597 17.708 145.247 14.2105 151.429 14.2105V14.2105L131.429 54L111.429 14.2105Z" fill="#1D283D"/>
<path d="M170 54C164.464 54 159.747 52.0609 155.848 48.1826C151.949 44.3043 150 39.6118 150 34.1053C150 28.5987 151.949 23.9062 155.848 20.028C159.747 16.1497 164.464 14.2105 170 14.2105C175.536 14.2105 180.253 16.1497 184.152 20.028C188.051 23.9062 190 28.5987 190 34.1053C190 39.6118 188.051 44.3043 184.152 48.1826C180.253 52.0609 175.536 54 170 54ZM170 45.4737C173.155 45.4737 175.848 44.3635 178.08 42.1431C180.313 39.9227 181.429 37.2434 181.429 34.1053C181.429 30.9671 180.313 28.2878 178.08 26.0674C175.848 23.847 173.155 22.7368 170 22.7368C166.845 22.7368 164.152 23.847 161.92 26.0674C159.688 28.2878 158.571 30.9671 158.571 34.1053C158.571 37.2434 159.688 39.9227 161.92 42.1431C164.152 44.3635 166.845 45.4737 170 45.4737Z" fill="#1D283D"/>
<path d="M195.789 18.7344C195.178 18.9115 194.531 19 193.848 19C191.953 19 190.337 18.3177 189.002 16.9531C187.667 15.5885 187 13.9375 187 12C187 10.0625 187.667 8.41146 189.002 7.04688C190.337 5.68229 191.953 5 193.848 5C195.743 5 197.359 5.68229 198.693 7.04688C200.028 8.41146 200.696 10.0625 200.696 12V19V19C199.075 19 197.761 17.686 197.761 16.0652V11.8906C197.741 10.8385 197.359 9.93229 196.615 9.17188C195.85 8.39062 194.928 8 193.848 8C192.768 8 191.846 8.39062 191.081 9.17188C190.317 9.95312 189.935 10.8958 189.935 12C189.935 13.1042 190.317 14.0469 191.081 14.8281C191.846 15.6094 192.768 16 193.848 16C194.561 16 195.208 15.8281 195.789 15.4844V18.7344Z" fill="#1D283D"/>
<path d="M205.587 5V16.0652C205.587 17.686 204.273 19 202.652 19V19V5H205.587ZM206 2C206 2.55208 205.806 3.02604 205.419 3.42188C205.042 3.80729 204.584 4 204.043 4C203.503 4 203.04 3.80729 202.652 3.42188C202.275 3.02604 202.087 2.55208 202.087 2C202.087 1.44792 202.275 0.979167 202.652 0.59375C203.04 0.197917 203.503 0 204.043 0C204.584 0 205.042 0.197917 205.419 0.59375C205.806 0.979167 206 1.44792 206 2Z" fill="#1D283D"/>
</g>
<defs>
<clipPath id="clip0_568_1411">
<rect width="206" height="54" fill="white"/>
</clipPath>
</defs>
</svg>
