<svg width="328" height="86" viewBox="0 0 328 86" fill="none" xmlns="http://www.w3.org/2000/svg">
<g clip-path="url(#clip0_586_1265)">
<path d="M40.9891 84.9906C38.1537 85.794 35.1529 86.1957 31.9868 86.1957C23.1971 86.1957 15.7069 83.1004 9.51635 76.9098C3.32576 70.7192 0.230469 63.2291 0.230469 54.4394C0.230469 45.6497 3.32576 38.1595 9.51635 31.969C15.7069 25.7784 23.1971 22.6831 31.9868 22.6831C40.7765 22.6831 48.2666 25.7784 54.4572 31.969C60.6478 38.1595 63.7431 45.6497 63.7431 54.4394V86.1957V86.1957C56.2266 86.1957 50.1332 80.1023 50.1332 72.5858V53.9432C50.0387 49.1703 48.2666 45.059 44.8169 41.6093C41.2726 38.065 36.9959 36.2929 31.9868 36.2929C26.9776 36.2929 22.7009 38.065 19.1567 41.6093C15.6124 45.1535 13.8403 49.4302 13.8403 54.4394C13.8403 59.4486 15.6124 63.7253 19.1567 67.2695C22.7009 70.8137 26.9776 72.5858 31.9868 72.5858C35.2947 72.5858 38.2955 71.8061 40.9891 70.2466V84.9906Z" fill="white"/>
<path d="M104.573 36.2929C99.5634 36.2929 95.2867 38.065 91.7425 41.6093C88.1983 45.1535 86.4261 49.4302 86.4261 54.4394V86.1957H72.8163V54.4394C72.8163 45.6497 75.9116 38.1595 82.1022 31.969C88.2928 25.7784 95.7829 22.6831 104.573 22.6831V36.2929Z" fill="white"/>
<path d="M127.256 36.2929V54.4394C127.256 59.4486 129.028 63.7253 132.572 67.2695C136.116 70.8137 140.393 72.5858 145.402 72.5858V86.1957C136.612 86.1957 129.122 83.1004 122.932 76.9098C116.741 70.7192 113.646 63.2291 113.646 54.4394V4.53661H127.256V22.6831H145.402V22.6831C145.402 30.1996 139.309 36.2929 131.792 36.2929H127.256Z" fill="white"/>
<path d="M168.085 22.6831V72.5858C168.085 80.1023 161.992 86.1957 154.475 86.1957V86.1957V22.6831H168.085ZM169.999 9.07323C169.999 11.5778 169.101 13.728 167.305 15.5237C165.557 17.2722 163.43 18.1465 160.926 18.1465C158.421 18.1465 156.271 17.2722 154.475 15.5237C152.727 13.728 151.853 11.5778 151.853 9.07323C151.853 6.56864 152.727 4.4421 154.475 2.69361C156.271 0.897872 158.421 0 160.926 0C163.43 0 165.557 0.897872 167.305 2.69361C169.101 4.4421 169.999 6.56864 169.999 9.07323Z" fill="white"/>
<path d="M177.158 22.6831H193.391L208.915 54.4394L217.538 37.0373C221.895 28.2453 230.859 22.6831 240.671 22.6831V22.6831L208.915 86.1957L177.158 22.6831Z" fill="white"/>
<path d="M270.159 86.1957C261.369 86.1957 253.879 83.1004 247.689 76.9098C241.498 70.7192 238.403 63.2291 238.403 54.4394C238.403 45.6497 241.498 38.1595 247.689 31.969C253.879 25.7784 261.369 22.6831 270.159 22.6831C278.949 22.6831 286.439 25.7784 292.629 31.969C298.82 38.1595 301.915 45.6497 301.915 54.4394C301.915 63.2291 298.82 70.7192 292.629 76.9098C286.439 83.1004 278.949 86.1957 270.159 86.1957ZM270.159 72.5858C275.168 72.5858 279.445 70.8137 282.989 67.2695C286.533 63.7253 288.305 59.4486 288.305 54.4394C288.305 49.4302 286.533 45.1535 282.989 41.6093C279.445 38.065 275.168 36.2929 270.159 36.2929C265.15 36.2929 260.873 38.065 257.329 41.6093C253.785 45.1535 252.013 49.4302 252.013 54.4394C252.013 59.4486 253.785 63.7253 257.329 67.2695C260.873 70.8137 265.15 72.5858 270.159 72.5858Z" fill="white"/>
<path d="M311.544 30.2041C310.559 30.4842 309.516 30.6243 308.416 30.6243C305.361 30.6243 302.758 29.545 300.606 27.3864C298.455 25.2279 297.379 22.6162 297.379 19.5514C297.379 16.4865 298.455 13.8748 300.606 11.7163C302.758 9.55772 305.361 8.47844 308.416 8.47844C311.471 8.47844 314.074 9.55772 316.225 11.7163C318.377 13.8748 319.452 16.4865 319.452 19.5514V30.6243V30.6243C316.84 30.6243 314.722 28.5066 314.722 25.8942V19.3783C314.69 17.7141 314.074 16.2806 312.875 15.0777C311.643 13.8419 310.157 13.224 308.416 13.224C306.675 13.224 305.188 13.8419 303.957 15.0777C302.725 16.3135 302.109 17.8047 302.109 19.5514C302.109 21.298 302.725 22.7892 303.957 24.025C305.188 25.2608 306.675 25.8787 308.416 25.8787C309.565 25.8787 310.608 25.6069 311.544 25.0631V30.2041Z" fill="white"/>
<path d="M327.336 8.47844V25.8942C327.336 28.5066 325.218 30.6243 322.606 30.6243V30.6243V8.47844H327.336ZM328.001 3.73291C328.001 4.60622 327.689 5.35595 327.065 5.98209C326.457 6.59176 325.718 6.8966 324.848 6.8966C323.977 6.8966 323.23 6.59176 322.606 5.98209C321.998 5.35595 321.694 4.60622 321.694 3.73291C321.694 2.85959 321.998 2.1181 322.606 1.50843C323.23 0.882287 323.977 0.569214 324.848 0.569214C325.718 0.569214 326.457 0.882287 327.065 1.50843C327.689 2.1181 328.001 2.85959 328.001 3.73291Z" fill="white"/>
</g>
<defs>
<clipPath id="clip0_586_1265">
<rect width="328" height="86" fill="white"/>
</clipPath>
</defs>
</svg>
